<?xml version="1.0"?>
<svg version="1.1" xmlns="http://www.w3.org/2000/svg" width="400px" height="200px" style="border: dashed 2px #aaa"><path fill="#4680ff" d="M12.625,135.42l0-41.58l-6.545-1.54l0-4.235l14.63-0.385l8.47,0c10.857,0,17.325,5.236,17.325,13.86c0,7.469-3.388,12.551-10.01,15.015c1.232,1.078,2.618,3.08,4.62,6.93l6.083,12.243l5.467,1.232l0,4.62l-11.55,0l-6.545-14.245c-3.619-7.7-5.313-9.24-10.395-9.24l-3.465,0l0,17.325l6.545,1.54l0,4.62l-21.175,0l0-4.62z M20.71,112.32l5.775,0c7.546,0,11.935-3.542,11.935-9.625c0-5.159-4.004-8.855-9.625-8.855l-8.085,0l0,18.48z M61.7972,141.58l0-4.62l6.545-1.54l0-41.58l-6.545-1.54l0-4.235l21.175-0.385l0,4.62l-6.545,1.54l0,41.58l6.545,1.54l0,4.62l-21.175,0z M101.3444,135.42l0-41.58l-6.545-1.54l0-4.235l14.63-0.385l8.085,0c11.55,0,17.71,6.16,17.71,15.785c0,11.935-7.7,18.095-20.79,18.095l-5.005,0l0,13.86l6.545,1.54l0,4.62l-21.175,0l0-4.62z M109.4294,115.4l5.005,0c8.47,0,12.705-3.85,12.705-10.78c0-6.16-3.465-10.78-10.01-10.78l-7.7,0l0,21.56z M160.9116,110.395l17.71,0l0,6.16l-17.71,0l0,18.865l17.71,0l1.54-7.7l5.005,0l0,13.86l-38.885,0l0-4.62l6.545-1.54l0-41.58l-6.545-1.54l0-4.235l14.63-0.385l23.485,0l0,13.09l-5.005,0l-1.925-6.93l-16.555,0l0,16.555z M206.6188,125.795l1.54,8.085s3.465,1.925,8.47,1.925c5.621,0,11.781-2.772,11.781-8.239c0-11.858-27.797-6.93-27.797-25.333c0-10.78,8.624-15.323,18.249-15.323c7.315,0,16.247,3.08,16.247,3.08l-0.385,13.09l-5.005,0l-2.618-8.239s-3.927-1.386-8.162-1.386c-6.93,0-10.241,3.619-10.241,7.469c0,11.704,27.72,7.238,27.72,24.563c0,11.55-9.317,16.863-20.097,16.863c-8.085,0-15.862-3.08-15.862-3.08l0-13.475l6.16,0z M253.019,135.497l17.556-47.432l7.7-0.385l17.094,47.817l6.391,1.463l0,4.62l-22.33,0l0-4.62l7.161-1.463l-2.926-8.547l-20.02,0l-3.003,8.547l7.238,1.463l0,4.62l-21.175,0l0-4.62z M281.586,120.79l-7.777-23.177l-8.085,23.177l15.862,0z M340.5372,135.42l1.54-8.855l5.39,0l0,15.015l-37.345,0l0-4.62l6.545-1.54l0-41.58l-6.545-1.54l0-4.235l21.175-0.385l0,4.62l-6.545,1.54l0,41.58l15.785,0z M371.9994,110.395l17.71,0l0,6.16l-17.71,0l0,18.865l17.71,0l1.54-7.7l5.005,0l0,13.86l-38.885,0l0-4.62l6.545-1.54l0-41.58l-6.545-1.54l0-4.235l14.63-0.385l23.485,0l0,13.09l-5.005,0l-1.925-6.93l-16.555,0l0,16.555z"/><path fill="#" d=""/></svg>
